
<svg width="285px" height="145px" viewBox="0 0 285 145" version="1.1" xmlns="http://www.w3.org/2000/svg" xmlns:xlink="http://www.w3.org/1999/xlink">
    <title>logo white background copy 3</title>
    <g id="Homepage" stroke="none" stroke-width="1" fill="none" fill-rule="evenodd">
        <g id="JobHunt-Landing-Copy-2" transform="translate(-46.000000, -29.000000)">
            <g id="logo-white-background-copy-3" transform="translate(46.000000, 29.000000)">
                <path d="M127.869,121.921 C125.594,121.921 123.749,123.766 123.749,126.041 C123.749,128.317 125.594,130.162 127.869,130.162 C130.145,130.162 131.99,128.317 131.99,126.041 C131.99,123.766 130.145,121.921 127.869,121.921" id="Fill-3" fill="#FD3D08"></path>
                <path d="M16.602,100.904 L16.602,107.258 L30.347,107.258 L30.347,125.99 C30.347,133.086 26.315,138.106 18.863,138.106 C11.41,138.106 7.317,133.881 7.317,126.357 L0.598,126.357 C0.598,137.923 8.234,144.52 18.863,144.52 C30.102,144.52 37.188,136.945 37.188,125.99 L37.188,100.904 L16.602,100.904" id="Fill-4" fill="#003051"></path>
                <path d="M59.056,112.999 C49.711,112.999 43.541,119.841 43.541,128.698 C43.541,137.617 49.65,144.337 59.056,144.337 C68.525,144.337 74.694,137.617 74.694,128.698 C74.694,119.841 68.342,112.999 59.056,112.999 Z M59.056,118.803 C64.554,118.803 68.342,123.384 68.342,128.698 C68.342,134.074 64.86,138.472 59.056,138.472 C53.315,138.472 49.833,134.074 49.833,128.698 C49.833,123.384 53.315,118.803 59.056,118.803 L59.056,118.803 Z" id="Fill-5" fill="#003051"></path>
                <path d="M97.663,118.864 C102.915,118.864 107.192,122.468 107.192,128.637 C107.192,134.685 102.915,138.472 97.663,138.472 C92.348,138.472 88.011,134.563 88.011,128.637 C88.011,122.834 92.409,118.864 97.663,118.864 Z M81.353,101.027 L81.353,143.725 L87.278,143.725 L87.644,138.961 C90.026,142.809 94.058,144.337 98.09,144.337 C106.825,144.337 113.484,138.594 113.484,128.637 C113.484,118.375 106.886,112.939 98.212,112.939 C94.547,112.939 89.599,114.771 87.644,118.314 L87.644,101.027 L81.353,101.027 L81.353,101.027 Z" id="Fill-6" fill="#003051"></path>
                <polyline id="Fill-7" fill="#003051" points="181.135 143.725 181.135 100.904 174.355 100.904 174.355 119.597 151.753 119.597 151.753 100.904 144.912 100.904 144.912 143.725 151.753 143.725 151.753 125.95 174.355 125.95 174.355 143.725 181.135 143.725"></polyline>
                <path d="M189.992,113.61 L189.992,129.798 C189.992,138.899 195.307,144.214 202.698,144.214 C206.913,144.214 210.151,142.687 213.082,139.327 L213.449,143.787 L219.131,143.787 L219.131,113.61 L212.839,113.61 L212.839,129.279 C212.839,134.278 209.417,138.36 204.47,138.36 C199.216,138.36 196.284,134.827 196.284,129.706 L196.284,113.61 L189.992,113.61" id="Fill-8" fill="#003051"></path>
                <path d="M256.881,143.725 L256.881,127.538 C256.881,118.314 251.26,113.122 243.93,113.122 C240.021,113.122 236.661,114.71 233.79,117.948 L233.424,113.55 L227.682,113.55 L227.682,143.725 L233.973,143.725 L233.973,127.966 C233.973,123.018 237.395,118.925 242.403,118.925 C247.596,118.925 250.528,122.407 250.528,127.599 L250.528,143.725 L256.881,143.725" id="Fill-9" fill="#003051"></path>
                <path d="M267.754,105.609 L267.754,113.672 L261.951,113.672 L261.951,119.108 L267.754,119.108 L267.754,133.463 C267.754,140.549 271.48,144.275 278.016,144.092 C280.154,144.092 281.987,143.664 284.063,142.748 L282.231,137.373 C281.009,137.983 279.604,138.411 278.382,138.411 C275.45,138.411 274.045,136.64 274.045,133.463 L274.045,119.108 L282.903,119.108 L282.903,113.672 L274.107,113.672 L274.107,104.936 L267.754,105.609" id="Fill-10" fill="#003051"></path>
                <path d="M112.063,55.306 L121.278,46.741 C120.319,44.015 119.837,41.146 119.837,38.254 C119.837,24.137 131.28,12.693 145.397,12.693 C159.515,12.693 170.958,24.137 170.958,38.254 C170.958,52.372 159.515,63.816 145.397,63.816 C137.167,63.816 129.489,59.886 124.669,53.217 L124.214,52.587 L101.829,73.39 L110.258,81.825 L122.92,68.2 L123.343,68.51 C129.747,73.19 137.467,75.69 145.397,75.69 C166.073,75.69 182.832,58.929 182.832,38.254 C182.832,17.579 166.073,0.819 145.397,0.819 C124.723,0.819 107.961,17.579 107.961,38.254 C107.961,44.198 109.354,50.025 112.063,55.306" id="Fill-11" fill="#00C5B3"></path>
                <path d="M130.629,38.255 C130.629,46.411 137.242,53.022 145.397,53.022 C153.552,53.022 160.165,46.409 160.165,38.255 C160.165,36.587 159.887,34.939 159.338,33.372 C158.238,34.189 156.876,34.672 155.401,34.672 C151.75,34.672 148.791,31.713 148.791,28.063 C148.791,26.632 149.246,25.307 150.018,24.225 C148.53,23.735 146.973,23.487 145.397,23.487 C137.241,23.487 130.629,30.099 130.629,38.255" id="Fill-12" fill="#003051"></path>
            </g>
        </g>
    </g>
</svg>