<?xml version="1.0" encoding="UTF-8"?>
<svg width="110px" height="26px" viewBox="0 0 110 26" version="1.1" xmlns="http://www.w3.org/2000/svg" xmlns:xlink="http://www.w3.org/1999/xlink">
    <!-- Generator: Sketch 62 (91390) - https://sketch.com -->
    <title>Group</title>
    <desc>Created with Sketch.</desc>
    <g id="Page-1" stroke="none" stroke-width="1" fill="none" fill-rule="evenodd">
        <g id="Group">
            <g id="text4455" transform="translate(0.820466, 0.000000)" fill="#37383A" fill-rule="nonzero">
                <path d="M8.99310905,4.03269937 C8.99310905,5.89888973 8.209615,7.07469824 6.6426269,7.56012489 L9.49122455,11.6700595 L7.15630886,11.6700595 L4.55676896,7.86755916 L2.14402096,7.86755916 L2.14402096,11.6700595 L0.307220769,11.6700595 L0.307220769,0.359648782 L4.35440777,0.359648782 C6.01479276,0.359648782 7.20300542,0.650903795 7.91904574,1.23341382 C8.63508795,1.81592385 8.99310905,2.74901903 8.99310905,4.03269937 L8.99310905,4.03269937 Z M4.43224009,6.1362103 C5.46997976,6.1362103 6.17564338,5.96900833 6.54923095,5.63460439 C6.92281663,5.30020045 7.10960947,4.76623211 7.10960947,4.03269937 C7.10960947,3.28838111 6.91762781,2.78138146 6.53366449,2.51170042 C6.14969928,2.2312319 5.46479,2.09099765 4.47893665,2.09099765 L2.14402096,2.09099765 L2.14402096,6.1362103 L4.43224009,6.1362103 L4.43224009,6.1362103 Z" id="path4871"></path>
                <polygon id="path4873" points="20.6329062 2.15572251 14.8267485 2.15572251 14.8267485 5.14917675 20.0413947 5.14917675 20.0413947 6.84816613 14.8267485 6.84816613 14.8267485 9.87398574 20.8197009 9.87398574 20.8197009 11.6700595 12.9899483 11.6700595 12.9899483 0.359648782 20.6329062 0.359648782"></polygon>
                <polygon id="path4875" points="26.3541808 11.6700595 24.5173807 11.6700595 24.5173807 0.359648782 27.3815448 0.359648782 30.6659921 7.4630376 33.9504393 0.359648782 36.799037 0.359648782 36.799037 11.6700595 34.9622368 11.6700595 34.9622368 2.8353159 31.1641076 10.6830259 30.1367436 10.6830259 26.3541808 2.8353159"></polygon>
                <path d="M48.9347634,3.02948755 C48.1979678,2.2312319 47.2899449,1.83210408 46.2106946,1.83210408 C45.1314444,1.83210408 44.2182326,2.2312319 43.4710594,3.02948755 C42.7342638,3.82774319 42.365866,4.79859356 42.365866,5.94203866 C42.365866,7.07469824 42.7342638,8.04015585 43.4710594,8.83841149 C44.2182326,9.63666518 45.1314444,10.035792 46.2106946,10.035792 C47.2899449,10.035792 48.1979678,9.63666518 48.9347634,8.83841149 C49.6819367,8.04015585 50.0555233,7.07469824 50.0555233,5.94203866 C50.0555233,4.79859356 49.6819367,3.82774319 48.9347634,3.02948755 Z M50.2890146,10.1166981 C49.189009,11.2277827 47.8295691,11.783325 46.2106946,11.783325 C44.5918183,11.783325 43.2323784,11.2277827 42.1323747,10.1166981 C41.0323692,8.99482599 40.4823664,7.60327284 40.4823664,5.94203866 C40.4823664,4.27001896 41.0323692,2.87846679 42.1323747,1.76738216 C43.2323784,0.645510056 44.5918183,0.0845740037 46.2106946,0.0845740037 C47.8295691,0.0845740037 49.189009,0.645510056 50.2890146,1.76738216 C51.3890182,2.87846679 51.93902,4.27001896 51.93902,5.94203866 C51.93902,7.60327284 51.3890182,8.99482599 50.2890146,10.1166981 Z" id="path4877"></path>
                <polygon id="path4879" points="59.4343454 2.10717886 59.4343454 11.6700595 57.5975452 11.6700595 57.5975452 2.10717886 54.2975315 2.10717886 54.2975315 0.359648782 62.7343592 0.359648782 62.7343592 2.10717886 59.4343454 2.10717886"></polygon>
                <polygon id="path4881" points="73.7352186 0.359648782 73.7352186 2.15572251 67.9290609 2.15572251 67.9290609 5.14917675 73.1437072 5.14917675 73.1437072 6.84816613 67.9290609 6.84816613 67.9290609 9.87398574 73.9220133 9.87398574 73.9220133 11.6700595 66.0922607 11.6700595 66.0922607 0.359648782 73.7352186 0.359648782"></polygon>
                <path d="M77.4640285,11.4435254 C77.2461036,11.2062068 77.1371412,10.9203455 77.1371412,10.5859416 C77.1371412,10.2515376 77.2461036,9.9710701 77.4640285,9.74453896 C77.6923328,9.50721839 77.9673347,9.38855811 78.289034,9.38855811 C78.6107334,9.38855811 78.8857343,9.50721839 79.1140368,9.74453896 C79.3423392,9.9710701 79.4564904,10.2515376 79.4564904,10.5859416 C79.4564904,10.9203455 79.3423392,11.2062068 79.1140368,11.4435254 C78.8857343,11.680846 78.6107334,11.7995063 78.289034,11.7995063 C77.9673347,11.7995063 77.6923328,11.680846 77.4640285,11.4435254 Z" id="path4883"></path>
                <path d="M88.2754233,9.93870767 C88.9084444,9.93870767 89.4532574,9.83083584 89.9098623,9.61509218 C90.3664692,9.38855909 90.8438303,9.0325802 91.3419458,8.5471555 L92.5249687,9.80926088 C91.3730769,11.1360911 89.9721273,11.7995063 88.3221199,11.7995063 C86.6824902,11.7995063 85.3178623,11.2493567 84.2282363,10.1490576 C83.1489861,9.04876043 82.609361,7.65720827 82.609361,5.97440109 C82.609361,4.29159391 83.1593628,2.88925427 84.2593664,1.76738216 C85.3697496,0.645510056 86.7655104,0.0845740037 88.4466488,0.0845740037 C90.1381667,0.0845740037 91.5494939,0.731807911 92.6806305,2.02627572 L91.5131712,3.35310303 C90.9943024,2.83531786 90.5013757,2.47394621 90.0343912,2.26898807 C89.5777863,2.06402993 89.0381621,1.96155086 88.4155187,1.96155086 C87.3155132,1.96155086 86.3919238,2.33371097 85.6447505,3.07803119 C84.8975773,3.81156197 84.5239906,4.75544463 84.5239906,5.90967917 C84.5239906,7.05312427 84.8923885,8.01318716 85.6291841,8.78986785 C86.3763573,9.55576106 87.2584371,9.93870767 88.2754233,9.93870767 L88.2754233,9.93870767 Z" id="path4885"></path>
                <path d="M103.622872,3.02948755 C102.886077,2.2312319 101.978054,1.83210408 100.898804,1.83210408 C99.8195535,1.83210408 98.9063427,2.2312319 98.1591713,3.02948755 C97.4223738,3.82774319 97.0539751,4.79859356 97.0539751,5.94203866 C97.0539751,7.07469824 97.4223738,8.04015585 98.1591713,8.83841149 C98.9063427,9.63666518 99.8195535,10.035792 100.898804,10.035792 C101.978054,10.035792 102.886077,9.63666518 103.622872,8.83841149 C104.370046,8.04015585 104.743632,7.07469824 104.743632,5.94203866 C104.743632,4.79859356 104.370046,3.82774319 103.622872,3.02948755 L103.622872,3.02948755 Z M104.977124,10.1166981 C103.87712,11.2277827 102.51768,11.783325 100.898804,11.783325 C99.2799293,11.783325 97.9204893,11.2277827 96.8204838,10.1166981 C95.7204801,8.99482599 95.1704783,7.60327284 95.1704783,5.94203866 C95.1704783,4.27001896 95.7204801,2.87846679 96.8204838,1.76738216 C97.9204893,0.645510056 99.2799293,0.0845740037 100.898804,0.0845740037 C102.51768,0.0845740037 103.87712,0.645510056 104.977124,1.76738216 C106.077129,2.87846679 106.627132,4.27001896 106.627132,5.94203866 C106.627132,7.60327284 106.077129,8.99482599 104.977124,10.1166981 Z" id="path4887"></path>
            </g>
            <g id="text4449" transform="translate(25.434453, 18.285859)" fill="#37383A" fill-rule="nonzero">
                <path d="M4.29926848,1.78216878 L4.29926848,5.09911983 C4.29926848,5.77108836 4.09817673,6.27387333 3.69599323,6.60747473 C3.2990329,6.94584186 2.78716299,7.11502543 2.16038351,7.11502543 C1.53360403,7.11502543 0.966890918,6.93631039 0.460244172,6.57888032 L0.875485577,5.9712492 C1.28289224,6.25242753 1.69291048,6.39301669 2.10554031,6.39301669 C2.52339329,6.39301669 2.85245252,6.29531913 3.09271799,6.09992403 C3.33820662,5.90452892 3.46095093,5.59237333 3.46095093,5.16345725 L3.46095093,4.67735235 C3.33037187,4.90134186 3.14233803,5.0800569 2.8968494,5.21349746 C2.65658393,5.34693801 2.38497949,5.41365829 2.08203607,5.41365829 C1.52838087,5.41365829 1.07396575,5.23732613 0.718790707,4.88466179 C0.363615669,4.53199745 0.18602815,4.0935499 0.18602815,3.56931913 C0.18602815,3.04508836 0.363615669,2.60664081 0.718790707,2.25397647 C1.07396575,1.90131214 1.52576929,1.72497997 2.07420133,1.72497997 C2.62785654,1.72497997 3.0770485,1.93228941 3.42177721,2.34690829 L3.42177721,1.78216878 L4.29926848,1.78216878 L4.29926848,1.78216878 Z M1.04784993,3.54072473 C1.04784993,3.85049745 1.15231318,4.11976144 1.36123967,4.34851669 C1.57538933,4.5725062 1.86005168,4.68450095 2.21522671,4.68450095 C2.57562492,4.68450095 2.86551042,4.57488906 3.08488324,4.35566529 C3.30947922,4.13644151 3.42177721,3.86479466 3.42177721,3.54072473 C3.42177721,3.21188906 3.30947922,2.93547647 3.08488324,2.71148696 C2.86028726,2.48273172 2.57040175,2.3683541 2.21522671,2.3683541 C1.86005168,2.3683541 1.57538933,2.48511459 1.36123967,2.71863556 C1.15231318,2.95215654 1.04784993,3.22618626 1.04784993,3.54072473 L1.04784993,3.54072473 Z" id="path4890"></path>
                <path d="M7.756718,2.53277193 C7.32319552,2.53277193 6.99674788,2.66144675 6.77737506,2.9187964 C6.55800224,3.17614605 6.44831583,3.52166179 6.44831583,3.95534361 L6.44831583,5.58522473 L5.57082456,5.58522473 L5.57082456,1.78216878 L6.44831583,1.78216878 L6.44831583,2.54706913 C6.58934121,2.30878242 6.77998664,2.11338731 7.02025211,1.96088382 C7.26574074,1.80838032 7.52428727,1.7297457 7.79589171,1.72497997 L7.80386891,2.53277193 L7.75686045,2.53277193 L7.756718,2.53277193 Z" id="path4892"></path>
                <path d="M9.57217336,4.58442053 C9.82288515,4.81317578 10.1388865,4.9275534 10.5201773,4.9275534 C10.9014682,4.9275534 11.2148579,4.81317578 11.4603465,4.58442053 C11.7110583,4.35089955 11.8364142,4.05065829 11.8364142,3.68369675 C11.8364142,3.31673522 11.7110583,3.01887682 11.4603465,2.79012158 C11.2148579,2.5566006 10.9014682,2.43984011 10.5201773,2.43984011 C10.1388865,2.43984011 9.82288515,2.5566006 9.57217336,2.79012158 C9.32668473,3.01887682 9.20394042,3.31673522 9.20394042,3.68369675 C9.20394042,4.05065829 9.32668473,4.35089955 9.57217336,4.58442053 Z M12.087126,5.07767403 C11.669273,5.45416704 11.1469568,5.64241354 10.5201773,5.64241354 C9.89339784,5.64241354 9.37108161,5.45416704 8.95322863,5.07767403 C8.53537564,4.69641529 8.32644915,4.2317562 8.32644915,3.68369675 C8.32644915,3.13563731 8.53537564,2.67336109 8.95322863,2.29686808 C9.37108161,1.91560934 9.89339784,1.72497997 10.5201773,1.72497997 C11.1469568,1.72497997 11.669273,1.91560934 12.087126,2.29686808 C12.504979,2.67336109 12.7139055,3.13563731 12.7139055,3.68369675 C12.7139055,4.2317562 12.504979,4.69641529 12.087126,5.07767403 Z" id="path4894"></path>
                <polygon id="path4896" points="15.6165555 5.58522473 14.6137083 5.58522473 13.1721155 1.78216878 14.0809457 1.78216878 15.1151319 4.65590655 16.149318 1.78216878 17.0581483 1.78216878 18.0923344 4.65590655 19.1265205 1.78216878 20.0353508 1.78216878 18.593758 5.58522473 17.5909108 5.58522473 16.6037331 2.98313382 15.6165555 5.58522473"></polygon>
                <path d="M25.1400537,2.53277193 C24.7065312,2.53277193 24.3800836,2.66144675 24.1607108,2.9187964 C23.9413379,3.17614605 23.8316515,3.52166179 23.8316515,3.95534361 L23.8316515,5.58522473 L22.9541603,5.58522473 L22.9541603,1.78216878 L23.8316515,1.78216878 L23.8316515,2.54706913 C23.9726769,2.30878242 24.1633223,2.11338731 24.4035878,1.96088382 C24.6490764,1.80838032 24.907623,1.7297457 25.1792274,1.72497997 L25.1869197,2.53277193 L25.1399112,2.53277193 L25.1400537,2.53277193 Z" id="path4898"></path>
                <path d="M29.9387116,4.03397822 L26.6716235,4.03397822 C26.6925162,4.31039081 26.83093,4.53438032 27.0868649,4.70594676 C27.3427999,4.87274746 27.635297,4.9561478 27.9643562,4.9561478 C28.4866725,4.9561478 28.8836328,4.80602718 29.1552372,4.50578592 L29.6566608,5.00618801 C29.2074689,5.43033836 28.6224747,5.64241354 27.9016783,5.64241354 C27.3166841,5.64241354 26.8178721,5.46608137 26.4052423,5.11341704 C25.9978356,4.75598697 25.7941323,4.27941354 25.7941323,3.68369675 C25.7941323,3.08321424 26.0030588,2.60664081 26.4209118,2.25397647 C26.8387647,1.90131214 27.329742,1.72497997 27.8938435,1.72497997 C28.4631682,1.72497997 28.9463107,1.8822492 29.3432711,2.19678766 C29.7402314,2.50656039 29.9387116,2.93547647 29.9387116,3.48353592 L29.9387116,4.03397822 L29.9387116,4.03397822 Z M26.6716235,3.4049013 L29.0612203,3.4049013 C29.0612203,3.0855971 28.9515339,2.84016179 28.7321611,2.66859536 C28.5127883,2.49702892 28.2411838,2.4112457 27.9173478,2.4112457 C27.5987349,2.4112457 27.3114609,2.50179466 27.055526,2.68289256 C26.799591,2.85922473 26.6716235,3.09989431 26.6716235,3.4049013 Z" id="path4900"></path>
                <path d="M31.7888136,3.52642752 L31.7888136,5.58522473 L30.9113223,5.58522473 L30.9113223,1.78216878 L31.7888136,1.78216878 L31.7888136,2.47558312 C31.9141695,2.24206214 32.1022033,2.05858137 32.3529151,1.92514081 C32.6088501,1.79170025 32.8830661,1.72497997 33.1755632,1.72497997 C33.8336817,1.72497997 34.280262,1.97279815 34.5153043,2.46843452 C34.9279342,1.97279815 35.4424157,1.72497997 36.0587488,1.72497997 C36.5288334,1.72497997 36.9075127,1.85603766 37.1947866,2.11815305 C37.4872837,2.38026843 37.6335323,2.75914431 37.6335323,3.25478067 L37.6335323,5.58522473 L36.756041,5.58522473 L36.756041,3.49783312 C36.756041,2.79727018 36.4374281,2.44698871 35.8002023,2.44698871 C35.502482,2.44698871 35.2413239,2.5351548 35.0167279,2.71148696 C34.7973551,2.8830534 34.6824455,3.13563731 34.6719992,3.46923871 L34.6719992,5.58522473 L33.7945079,5.58522473 L33.7945079,3.49783312 C33.7945079,3.13563731 33.7239952,2.87113906 33.5829699,2.70433836 C33.4419445,2.53277193 33.2199601,2.44698871 32.9170167,2.44698871 C32.6140733,2.44698871 32.3503036,2.53992053 32.1257076,2.72578417 C31.9011116,2.90688207 31.7888136,3.17376319 31.7888136,3.52642752 L31.7888136,3.52642752 Z" id="path4902"></path>
                <path d="M39.8246906,4.58442053 C40.0754024,4.81317578 40.3914037,4.9275534 40.7726946,4.9275534 C41.1539854,4.9275534 41.4673752,4.81317578 41.7128638,4.58442053 C41.9635756,4.35089955 42.0889315,4.05065829 42.0889315,3.68369675 C42.0889315,3.31673522 41.9635756,3.01887682 41.7128638,2.79012158 C41.4673752,2.5566006 41.1539854,2.43984011 40.7726946,2.43984011 C40.3914037,2.43984011 40.0754024,2.5566006 39.8246906,2.79012158 C39.579202,3.01887682 39.4564577,3.31673522 39.4564577,3.68369675 C39.4564577,4.05065829 39.579202,4.35089955 39.8246906,4.58442053 Z M42.3396433,5.07767403 C41.9217903,5.45416704 41.3994741,5.64241354 40.7726946,5.64241354 C40.1459151,5.64241354 39.6235989,5.45416704 39.2057459,5.07767403 C38.7878929,4.69641529 38.5789664,4.2317562 38.5789664,3.68369675 C38.5789664,3.13563731 38.7878929,2.67336109 39.2057459,2.29686808 C39.6235989,1.91560934 40.1459151,1.72497997 40.7726946,1.72497997 C41.3994741,1.72497997 41.9217903,1.91560934 42.3396433,2.29686808 C42.7574963,2.67336109 42.9664228,3.13563731 42.9664228,3.68369675 C42.9664228,4.2317562 42.7574963,4.69641529 42.3396433,5.07767403 Z" id="path4904"></path>
                <path d="M44.9994162,2.42554291 L44.9994162,4.35566529 C44.9994162,4.53676319 45.0516478,4.68211808 45.1561111,4.79172997 C45.2605743,4.89657613 45.4068229,4.9489992 45.5948567,4.9489992 C45.7828906,4.9489992 45.9630897,4.86559885 46.135454,4.69879815 L46.4958522,5.26353767 C46.1876856,5.51612158 45.8455685,5.64241354 45.4695008,5.64241354 C45.0986563,5.64241354 44.7800434,5.52565305 44.5136621,5.29213207 C44.252504,5.05384536 44.1219249,4.73454116 44.1219249,4.33421948 L44.1219249,2.42554291 L43.5969971,2.42554291 L43.5969971,1.78216878 L44.1219249,1.78216878 L44.1219249,0.588352346 L44.9994162,0.588352346 L44.9994162,1.78216878 L46.0962803,1.78216878 L46.0962803,2.42554291 L44.9994162,2.42554291 L44.9994162,2.42554291 Z" id="path4906"></path>
                <path d="M51.0557954,4.03397822 L47.7887074,4.03397822 C47.8096,4.31039081 47.9480138,4.53438032 48.2039488,4.70594676 C48.4598838,4.87274746 48.7523808,4.9561478 49.0814401,4.9561478 C49.6037563,4.9561478 50.0007166,4.80602718 50.2723211,4.50578592 L50.7737447,5.00618801 C50.3245527,5.43033836 49.7395585,5.64241354 49.0187621,5.64241354 C48.4337679,5.64241354 47.9349559,5.46608137 47.5223261,5.11341704 C47.1149195,4.75598697 46.9112161,4.27941354 46.9112161,3.68369675 C46.9112161,3.08321424 47.1201426,2.60664081 47.5379956,2.25397647 C47.9558486,1.90131214 48.4468259,1.72497997 49.0109274,1.72497997 C49.5802521,1.72497997 50.0633946,1.8822492 50.4603549,2.19678766 C50.8573153,2.50656039 51.0557954,2.93547647 51.0557954,3.48353592 L51.0557954,4.03397822 L51.0557954,4.03397822 Z M47.7887074,3.4049013 L50.1783042,3.4049013 C50.1783042,3.0855971 50.0686178,2.84016179 49.8492449,2.66859536 C49.6298721,2.49702892 49.3582677,2.4112457 49.0344316,2.4112457 C48.7158187,2.4112457 48.4285448,2.50179466 48.1726098,2.68289256 C47.9166749,2.85922473 47.7887074,3.09989431 47.7887074,3.4049013 Z" id="path4908"></path>
                <polygon id="path4910" points="52.9058946 5.58522473 52.0284033 5.58522473 52.0284033 0.280962486 52.9058946 0.280962486"></polygon>
                <path d="M54.6956435,7.10072823 C54.3143526,7.10072823 53.9696239,6.97443627 53.6614573,6.72185235 L54.0610292,6.07132962 C54.2438399,6.22859885 54.4318738,6.30723347 54.6251308,6.30723347 C54.8236109,6.30723347 54.9829174,6.24289606 55.1030501,6.11422123 C55.228406,5.98554641 55.291084,5.84495725 55.291084,5.69245375 C55.291084,5.62573347 54.729594,4.32230515 53.6066141,1.78216878 L54.5467833,1.78216878 L55.7925076,4.58442053 L57.0382318,1.78216878 L57.978401,1.78216878 L55.9570372,6.30008487 C55.8369044,6.54790305 55.6645401,6.74329816 55.4399441,6.88627018 C55.2153481,7.02924221 54.9672479,7.10072823 54.6956435,7.10072823 Z" id="path4912"></path>
            </g>
            <path d="M0,15.1689508 L57.5249623,15.1689508 L109.122007,15.1689508" id="path4515" stroke="#0098CA" stroke-width="2" fill="#00A0DA"></path>
        </g>
    </g>
</svg>