<svg xmlns="http://www.w3.org/2000/svg" width="168" height="38" fill="none"><g clip-path="url(#a)"><g clip-path="url(#b)"><path fill="#fff" d="m34.314 25.725-9.567.179c-.322 0-.645.179-.86.466-.967 1.54-3.977 5.84-6.664 8.85a1.23 1.23 0 0 1-1.899-.287c-.072-.144-.179-.287-.179-.323-.573-1.325-2.329-8.993-3.117-9.96-.968-1.147-9.28-3.225-10.57-3.655-.931-.322-1.182-1.54-.466-2.221 2.114-2.007 5.518-4.837 7.954-6.45.323-.179.538-.537.538-.895l-.143-9.1c0-.717.716-1.255 1.397-.932 2.042.86 5.697 3.153 7.99 5.159a.965.965 0 0 0 1.003.287c1.648-.466 6.27-1.792 10.785-2.043a.982.982 0 0 1 1.039 1.111c-.215 2.15-.824 6.772-1.828 9.817-.107.323-.071.645.18.932.967 1.254 3.26 4.407 5.266 7.56.359.68-.071 1.505-.86 1.505Z"/><path fill="url(#c)" d="M23.457 14.51c0 1.182-.967 2.186-2.15 2.186-1.182 0-2.15-.968-2.15-2.186 0-1.182.968-2.185 2.15-2.185 1.183 0 2.15 1.003 2.15 2.185Zm10.857 11.215-9.567.179c-.322 0-.645.179-.86.466-.967 1.54-3.977 5.84-6.664 8.85a1.23 1.23 0 0 1-1.899-.287c-.072-.144-.179-.287-.179-.323-.573-1.325-2.329-8.993-3.117-9.96-.968-1.147-9.28-3.225-10.57-3.655-.931-.322-1.182-1.54-.466-2.221 2.114-2.007 5.518-4.837 7.954-6.45.323-.179.538-.537.538-.895l-.143-9.1c0-.717.716-1.255 1.397-.932 2.042.86 5.697 3.153 7.99 5.159a.965.965 0 0 0 1.003.287c1.648-.466 6.27-1.792 10.785-2.043a.982.982 0 0 1 1.039 1.111c-.215 2.15-.824 6.772-1.828 9.817-.107.323-.071.645.18.932.967 1.254 3.26 4.407 5.266 7.56.359.68-.071 1.505-.86 1.505ZM28.688 7.989c.072-.25-.179-.501-.465-.466-9.674 1.004-18.524 8.062-21.39 10.606-.466.394-.323 1.146.25 1.361 0 0 6.163 1.004 7.632 2.258 1.075.931 2.114 6.52 2.114 6.52.215.538.896.645 1.29.251 8.348-8.563 10.247-18.165 10.57-20.53Z"/><path fill="url(#d)" d="M12.314 31.279c-.071-.323-.179-.645-.286-1.004l-3.082 3.261c-.215.25-.322.573-.322.896 0 .358.143.68.394.895.215.215.537.323.86.323.358 0 .68-.143.931-.394l2.043-2.15a19.85 19.85 0 0 1-.538-1.827Z"/><path fill="url(#e)" d="M10.63 25.797c-.25-.18-.752-.358-1.325-.573l-7.668 7.81c-.25.251-.358.574-.358.896 0 .323.108.681.358.896.251.215.574.358.896.358.323 0 .645-.107.932-.358l7.595-7.74c-.143-.537-.286-1.002-.43-1.29Z"/><path fill="url(#f)" d="m3.715 23.468-2.544 2.58c-.215.25-.358.573-.358.895 0 .323.107.681.358.896.251.215.574.359.896.359.323 0 .68-.144.896-.359l3.547-3.583a48.033 48.033 0 0 1-2.795-.788Z"/><path fill="url(#g)" stroke="url(#h)" stroke-width="1.171" d="M12.314 31.279c-.071-.323-.179-.645-.286-1.004l-3.082 3.261c-.215.25-.322.573-.322.896 0 .358.143.68.394.895.215.215.537.323.86.323.358 0 .68-.143.931-.394l2.043-2.15a19.85 19.85 0 0 1-.538-1.827Z"/><path stroke="url(#i)" stroke-width="1.171" d="m3.715 23.468-2.544 2.58c-.215.25-.358.573-.358.895 0 .323.107.681.358.896.251.215.574.359.896.359.323 0 .68-.144.896-.359l3.547-3.583a48.033 48.033 0 0 1-2.795-.788Z"/><path stroke="url(#j)" stroke-opacity=".5" stroke-width="1.171" d="M10.63 25.797c-.25-.18-.752-.358-1.325-.573l-7.668 7.81c-.25.251-.358.574-.358.896 0 .323.108.681.358.896.251.215.574.358.896.358.323 0 .645-.107.932-.358l7.595-7.74c-.143-.537-.286-1.002-.43-1.29Z"/><g filter="url(#k)"><path stroke="url(#l)" stroke-width="1.171" d="m34.314 25.725-9.567.179c-.322 0-.645.179-.86.466-.967 1.54-3.977 5.84-6.664 8.85a1.23 1.23 0 0 1-1.899-.287c-.072-.144-.179-.287-.179-.323-.573-1.325-2.329-8.993-3.117-9.96-.968-1.147-9.28-3.225-10.57-3.655-.931-.322-1.182-1.54-.466-2.221 2.114-2.007 5.518-4.837 7.954-6.45.323-.179.538-.537.538-.895l-.143-9.1c0-.717.716-1.255 1.397-.932 2.042.86 5.697 3.153 7.99 5.159a.965.965 0 0 0 1.003.287c1.648-.466 6.27-1.792 10.785-2.043a.982.982 0 0 1 1.039 1.111c-.215 2.15-.824 6.772-1.828 9.817-.107.323-.071.645.18.932.967 1.254 3.26 4.407 5.266 7.56.359.68-.071 1.505-.86 1.505Z"/></g><path fill="#556485" d="M49.422 15.96c-1.02-.947-2.142-1.218-3.4-1.218-1.666-.034-2.754.507-2.754 1.555.034 1.082 1.156 1.487 2.822 1.656 2.38.203 5.507.744 5.473 4.057-.034 2.4-2.141 4.056-5.507 4.056-2.108 0-4.215-.473-5.915-2.366l1.428-1.893c1.223 1.318 3.025 1.893 4.555 1.893 1.292 0 2.72-.473 2.754-1.656.034-1.15-1.088-1.59-2.992-1.792-2.448-.237-5.235-1.014-5.27-3.853 0-2.84 2.958-3.922 5.372-3.922 2.006 0 3.536.44 4.997 1.724l-1.563 1.758ZM57.275 8.997c0 2.23-3.366 2.23-3.366 0 0-2.164 3.366-2.164 3.366 0Zm-3.026 3.752V25.66h2.72V12.748h-2.72ZM64.788 9.098v3.718h3.774v2.332h-3.808v6.118c0 1.352.612 2.13 1.87 2.13.51 0 1.122-.17 1.665-.44l.782 2.299c-.884.406-1.665.575-2.583.575-2.822.067-4.42-1.521-4.42-4.53v-6.118h-2.482V12.85h2.482V9.368l2.72-.27ZM73.32 20.218c.238 1.96 1.87 3.245 4.216 3.245 1.326 0 2.958-.507 3.74-1.386l1.768 1.69c-1.326 1.454-3.57 2.198-5.576 2.198-4.25 0-6.969-2.705-6.969-6.795 0-3.92 2.753-6.693 6.8-6.693 4.18 0 7.002 2.536 6.492 7.775l-10.47-.034Zm7.888-2.265c-.17-2.028-1.666-3.11-3.842-3.11-1.972 0-3.604 1.082-4.012 3.11h7.854ZM89.265 12.748v14.433c0 3.245-1.19 4.936-4.08 4.936a4.89 4.89 0 0 1-2.719-.812l.986-2.13c.544.271 1.122.406 1.665.406 1.292-.033 1.496-.912 1.496-2.4V12.748h2.652ZM86.24 8.962c0 2.231 3.366 2.231 3.366 0 0-2.197-3.366-2.197-3.366 0ZM103.34 12.782h2.618v12.879h-2.585l-.136-2.096c-.85 1.656-2.855 2.434-4.453 2.434-3.774.034-6.629-2.4-6.629-6.795 0-4.292 2.957-6.692 6.697-6.692 1.835 0 3.603.845 4.42 2.332l.068-2.062Zm-8.466 6.422c0 2.67 1.904 4.293 4.216 4.293 5.575 0 5.575-8.518 0-8.518-2.346 0-4.216 1.589-4.216 4.225ZM112.349 7.407v7.37c.849-1.522 2.956-2.3 4.554-2.3 3.741 0 6.562 2.333 6.562 6.693 0 4.26-2.856 6.693-6.629 6.693-1.734 0-3.468-.642-4.487-2.298l-.17 2.028h-2.55V7.34l2.72.067Zm.136 11.797c0 2.535 1.87 4.192 4.147 4.192 2.244 0 4.079-1.623 4.079-4.192 0-2.636-1.835-4.191-4.079-4.191-2.244.034-4.147 1.724-4.147 4.191ZM129.041 7.407v7.37c.85-1.522 2.958-2.3 4.556-2.3 3.739 0 6.561 2.333 6.561 6.693 0 4.26-2.856 6.693-6.63 6.693-1.734 0-3.467-.642-4.487-2.298l-.17 2.028h-2.55V7.34l2.72.067Zm.135 11.797c0 2.535 1.87 4.192 4.149 4.192 2.243 0 4.078-1.623 4.078-4.192 0-2.636-1.835-4.191-4.078-4.191-2.244.034-4.149 1.724-4.149 4.191ZM145.052 20.218c.238 1.96 1.871 3.245 4.216 3.245 1.326 0 2.958-.507 3.739-1.386l1.768 1.69c-1.326 1.454-3.569 2.198-5.575 2.198-4.25 0-6.969-2.705-6.969-6.795 0-3.92 2.754-6.693 6.799-6.693 4.182 0 7.003 2.536 6.493 7.775l-10.471-.034Zm7.887-2.265c-.17-2.028-1.665-3.11-3.841-3.11-1.972 0-3.603 1.082-4.011 3.11h7.852ZM160.827 12.782l.169 1.69c.952-1.656 2.415-1.995 3.808-1.995 1.258 0 2.482.44 3.196 1.082l-1.224 2.333c-.646-.508-1.292-.778-2.277-.778-1.87 0-3.503 1.15-3.503 3.515v6.964h-2.719V12.714l2.55.068Z"/></g></g><defs><linearGradient id="c" x1="30.113" x2="8.995" y1="5.717" y2="26.835" gradientUnits="userSpaceOnUse"><stop offset=".174" stop-color="#52BFCA"/><stop offset=".916" stop-color="#7238DF"/></linearGradient><linearGradient id="d" x1="5.857" x2="14.137" y1="38.235" y2="30.096" gradientUnits="userSpaceOnUse"><stop offset=".188" stop-color="#25E2EA"/><stop offset="1" stop-color="#19A6D1"/></linearGradient><linearGradient id="e" x1="-5.19" x2="13.282" y1="41.439" y2="23.282" gradientUnits="userSpaceOnUse"><stop stop-color="#A443FD"/><stop offset="1" stop-color="#A959F3"/></linearGradient><linearGradient id="f" x1="-2.22" x2="6.936" y1="31.148" y2="22.149" gradientUnits="userSpaceOnUse"><stop offset=".396" stop-color="#E55EC4"/><stop offset="1" stop-color="#8225D0"/></linearGradient><linearGradient id="g" x1="5.857" x2="14.137" y1="38.235" y2="30.096" gradientUnits="userSpaceOnUse"><stop offset=".188" stop-color="#25E2EA"/><stop offset="1" stop-color="#19A6D1"/></linearGradient><linearGradient id="h" x1="8.624" x2="11.776" y1="35.91" y2="32.64" gradientUnits="userSpaceOnUse"><stop/><stop offset="0" stop-color="#E4FCFF"/><stop offset="1" stop-color="#E4FCFF" stop-opacity="0"/></linearGradient><linearGradient id="i" x1=".813" x2="4.947" y1="28.068" y2="23.843" gradientUnits="userSpaceOnUse"><stop stop-color="#FFF5FE"/><stop offset=".769" stop-color="#FFF5FE" stop-opacity="0"/></linearGradient><linearGradient id="j" x1="1.678" x2="10.561" y1="34.868" y2="25.782" gradientUnits="userSpaceOnUse"><stop stop-color="#F6EDFE"/><stop offset=".851" stop-color="#A851F8" stop-opacity="0"/></linearGradient><linearGradient id="l" x1="31.771" x2="8.796" y1="4.572" y2="28.675" gradientUnits="userSpaceOnUse"><stop offset=".009" stop-color="#2D9FAB"/><stop offset=".089" stop-color="#2D9FAB" stop-opacity=".824"/><stop offset=".172" stop-color="#2D9FAB" stop-opacity=".8"/><stop offset=".302" stop-color="#2D9FAB" stop-opacity=".8"/><stop offset="1" stop-color="#fff" stop-opacity=".5"/></linearGradient><clipPath id="a"><path fill="#fff" d="M0 0h168v38H0z"/></clipPath><clipPath id="b"><path fill="#fff" d="M0 .718h168v36.565H0z"/></clipPath><filter id="k" width="35.891" height="35.656" x="-.007" y=".711" color-interpolation-filters="sRGB" filterUnits="userSpaceOnUse"><feFlood flood-opacity="0" result="BackgroundImageFix"/><feBlend in="SourceGraphic" in2="BackgroundImageFix" result="shape"/><feColorMatrix in="SourceAlpha" result="hardAlpha" values="0 0 0 0 0 0 0 0 0 0 0 0 0 0 0 0 0 0 127 0"/><feOffset dy=".234"/><feGaussianBlur stdDeviation=".117"/><feComposite in2="hardAlpha" k2="-1" k3="1" operator="arithmetic"/><feColorMatrix values="0 0 0 0 1 0 0 0 0 1 0 0 0 0 1 0 0 0 0.8 0"/><feBlend in2="shape" result="effect1_innerShadow_545_79"/><feColorMatrix in="SourceAlpha" result="hardAlpha" values="0 0 0 0 0 0 0 0 0 0 0 0 0 0 0 0 0 0 127 0"/><feOffset dy=".117"/><feGaussianBlur stdDeviation=".117"/><feComposite in2="hardAlpha" k2="-1" k3="1" operator="arithmetic"/><feColorMatrix values="0 0 0 0 0.441667 0 0 0 0 0.441667 0 0 0 0 0.441667 0 0 0 0.4 0"/><feBlend in2="effect1_innerShadow_545_79" result="effect2_innerShadow_545_79"/></filter></defs></svg>